# Blender v2.62 (sub 0) OBJ File: ''
# www.blender.org
mtllib normals.mtl
o Cube_Cube.001
v -0.814984 -0.468686 1.236000
v -0.814984 -0.468686 -0.764000
v 1.185016 -0.468686 -0.764000
v 1.185016 -0.468686 1.236000
v -0.814984 1.531314 1.236000
v -0.814983 1.531314 -0.764001
v 1.185017 1.531314 -0.764000
v 1.185016 1.531314 1.236000
vn -0.000000 -1.000000 0.000000
vn 0.000000 1.000000 -0.000000
vn -1.000000 0.000000 -0.000000
vn 0.000000 -0.000000 -1.000000
vn 1.000000 -0.000000 0.000000
vn -0.000000 0.000000 1.000000
usemtl 
s off
f 1//1 2//1 3//1
f 1//1 3//1 4//1
f 5//2 8//2 7//2
f 5//2 7//2 6//2
f 1//3 5//3 6//3
f 1//3 6//3 2//3
f 2//4 6//4 7//4
f 2//4 7//4 3//4
f 3//5 7//5 8//5
f 3//5 8//5 4//5
f 5//6 1//6 4//6
f 5//6 4//6 8//6
